<?xml version="1.0" encoding="UTF-8" standalone="no"?>
<!-- Created with Inkscape (http://www.inkscape.org/) -->

<svg
   xmlns:dc="http://purl.org/dc/elements/1.1/"
   xmlns:cc="http://creativecommons.org/ns#"
   xmlns:rdf="http://www.w3.org/1999/02/22-rdf-syntax-ns#"
   xmlns:svg="http://www.w3.org/2000/svg"
   xmlns="http://www.w3.org/2000/svg"
   version="1.1"
   width="300"
   height="300"
   id="svg2">
  <defs
     id="defs7">
    <style
       type="text/css"
       id="style2757" />
    <style
       type="text/css"
       id="style2757-5" />
  </defs>
  <metadata
     id="metadata7950">
    <rdf:RDF>
      <cc:Work
         rdf:about="">
        <dc:format>image/svg+xml</dc:format>
        <dc:type
           rdf:resource="http://purl.org/dc/dcmitype/StillImage" />
        <dc:title></dc:title>
      </cc:Work>
    </rdf:RDF>
  </metadata>
  <g
     transform="matrix(0.8853299999999999,0,0,0.94289,-316.68,581.83)"
     id="g14353"
     style="stroke:#aa8800">
    <g
       transform="matrix(1.0434,0,0,1.0001,-0.027518,-0.042135)"
       id="g17527">
      <g
         transform="translate(-123.41,-260.88)"
         id="g37035">
        <g
           transform="translate(-60.774,-125.21)"
           id="g6354">
          <g
             id="g17924">
            <g
               transform="matrix(1.2221,0,0,1.2221,-165.7,197.11)"
               id="layer1">
              <g
                 transform="matrix(0.74441,0,0,0.8304399999999997,193.26,73.149)"
                 id="g11519"
                 style="stroke:#000000;stroke-width:3.0099999905">
                <g
                   transform="translate(-20.47,-278.11)"
                   id="g11521" />
              </g>
            </g>
          </g>
        </g>
      </g>
    </g>
  </g>
  <g
     transform="matrix(1.475896334913367,-1.475896334913367,1.475896334913367,1.475896334913367,-252.3250615698567,98.31574733127662)"
     id="g867"
     style="fill:#e9e9e9;stroke:#000000;stroke-width:1.4373098612;stroke-linecap:round;stroke-linejoin:round">
    <path
       d="m 48.16125,153.8166036 c -3.4746,-5.557653275 -6.95139999999999,-11.10553843 -11.01100000000003,-14.04411453 0.40046999999999,-1.082389097 0.26457,-2.407353174 1.9101,-2.9267729549999 2.73610000000003,0.2346383825 5.0668,2.2845190649999 7.52800000000002,3.7498998669999 0.24846000000003,-1.406446478 1.3621,-2.5568054099999 3.25840000000001,-3.475497096 1.83569999999996,-0.088238684 4.06740000000001,2.402387713 6.17970000000001,4.115715961 0.23655000000003,-0.868060264 0.04044,-1.877025659 1.68540000000003,-2.28655409 0.74905000000001,0.6676184416 1.4981000000001,1.007825781 2.24720000000002,1.189024407 0.72167999999998,-0.9231687409999 0.28042,-2.210444155 2.24720000000007,-2.743783507 1.8616,1.409621117 4.11849999999996,2.014756151 6.17970000000006,3.018186278 0.039104,-0.85796654 0.01559,-1.728631636 1.21800000000003,-2.349802667 1.01999999999998,8.248363331e-4 2.09320000000008,0.196746217 2.82679999999999,-0.851291658 2.05569999999999,-0.6571828334 4.9402,2.058712691 7.41559999999993,3.109681002 0.19857999999999,-1.426389723 -0.14812000000002,-3.166091895 2.47190000000016,-3.201094325 0.93470000000002,0.5319962355 1.86779999999983,1.064562278 3.82589999999982,1.239493027 l 0.9533900000002,-0.6467228049 c 6.08089999999982,4.794600301 12.331,10.27687625 15.66499999999998,16.10355983 z"
       id="path1545" />
    <path
       d="M 46.58125000000001,140.5889411 C 50.70155,144.732984609 53.52564999999999,149.17837462 55.55135000000002,153.80927751"
       id="path1547" />
    <path
       d="m 56.02125000000001,141.232009 c 3.48309999999998,3.395724116 6.96620000000002,7.996101631 10.44900000000001,12.58052455"
       id="path1549" />
    <path
       d="M 59.95125000000003,140.1330955 C 64.80065,143.055147197 68.39635000000004,148.52879464 72.08625,153.81090553"
       id="path1551" />
    <path
       d="M 68.38125000000002,140.4098589 C 73.23625000000004,143.058403237 77.61185,149.21907512 82.20125000000001,153.81334756"
       id="path1553" />
    <path
       d="m 79.84125,140.3203178 c 5.66789999999997,4.306194301 6.50540000000001,8.96957619 9.21339999999998,13.49547179"
       id="path1555" />
    <path
       d="m 86.14125000000001,138.3585537 c 4.65859999999998,4.507417573 7.80309999999997,10.00092686 11.00499999999998,15.45642188"
       id="path1557" />
    <path
       d="m 48.16125,153.8113964 c -3.4746,5.557653275 -6.95139999999999,11.10553843 -11.01100000000003,14.04411453 0.40046999999999,1.082389097 0.26457,2.407353174 1.9101,2.9267729549999 2.73610000000003,-0.2346383825 5.0668,-2.284519065 7.52800000000002,-3.7498998669999 0.24846000000003,1.406446478 1.3621,2.5568054099999 3.25840000000001,3.4754970959999 1.83569999999996,0.088238684 4.06740000000001,-2.402387713 6.17970000000001,-4.1157159609999 0.23655000000003,0.8680602640001 0.04044,1.877025659 1.68540000000003,2.2865540900001 C 58.46090000000005,168.0111008014 59.20995000000013,167.670893462 59.95905000000006,167.489694836 c 0.72167999999998,0.9231687409999 0.28042,2.2104441550001 2.24720000000007,2.743783507 1.8616,-1.409621117 4.11849999999996,-2.014756151 6.17970000000006,-3.018186278 0.039104,0.85796654 0.01559,1.728631636 1.21800000000003,2.349802667 1.01999999999998,-8.248363331e-4 2.09320000000008,-0.196746217 2.82679999999999,0.851291658 2.05569999999999,0.6571828334 4.9402,-2.058712691 7.41559999999993,-3.109681002 0.19857999999999,1.426389723 -0.14812000000002,3.166091895 2.47190000000016,3.2010943250001 0.93470000000002,-0.5319962355 1.86779999999983,-1.0645622780001 3.82589999999982,-1.239493027 l 0.9533900000002,0.6467228049 c 6.08089999999982,-4.794600301 12.331,-10.27687625 15.66499999999998,-16.10355983 z"
       id="path1570" />
    <path
       d="M 46.58125000000001,167.0390589 C 50.70155,162.895015391 53.52564999999999,158.44962538 55.55135000000002,153.81872249"
       id="path1572" />
    <path
       d="m 56.02125000000001,166.395991 c 3.48309999999998,-3.395724116 6.96620000000002,-7.996101631 10.44900000000001,-12.58052455"
       id="path1574" />
    <path
       d="M 59.95125000000003,167.4949045 C 64.80065,164.572852803 68.39635000000004,159.09920536 72.08625,153.81709447"
       id="path1576" />
    <path
       d="M 68.38125000000002,167.2181411 C 73.23625000000004,164.569596763 77.61185,158.40892488 82.20125000000001,153.81465244"
       id="path1578" />
    <path
       d="m 79.84125,167.3076822 c 5.66789999999997,-4.306194301 6.50540000000001,-8.96957619 9.21339999999998,-13.49547179"
       id="path1580" />
    <path
       d="m 86.14125000000001,169.2694463 c 4.65859999999998,-4.507417573 7.80309999999997,-10.00092686 11.00499999999998,-15.45642188"
       id="path1582" />
    <rect
       width="145.1499938964844"
       height="3.362900018692017"
       ry="2.441999912261963"
       x="44.27325057983398"
       y="152.1300048828125"
       id="rect1543" />
    <path
       d="m 180.53125,142.94 c -0.69619,4.2179 3.2805,7.6733 8.9062,10.862 -5.6257,3.1886 -9.6024,6.6695 -8.9062,10.887 7.5514,-5.835 21.324,-9.8668 35.594,-10.887 -14.269,-1.0205 -28.042,-5.0269 -35.594,-10.862 z"
       id="path1538" />
  </g>
</svg>
